{"asset":{"generator":"Khronos glTF Blender I/O v1.8.19","version":"2.0"},"scene":0,"scenes":[{"name":"Scene","nodes":[36]}],"nodes":[{"name":"L_ear01","translation":[7.399999618530273,11.5,-4.800000190734863]},{"children":[0],"name":"L_ear00","translation":[21,40.5,-5.199999809265137]},{"name":"R_ear01","translation":[-7.399999618530273,11.5,-4.800000190734863]},{"children":[2],"name":"R_ear00","translation":[-21,40.5,-5.199999809265137]},{"name":"nose","translation":[0,22.087322235107422,24.01772117614746]},{"children":[1,3,4],"name":"neck","translation":[0,8,0]},{"name":"L_snap","translation":[5,0,0]},{"children":[6],"name":"L_hand","translation":[3.1499996185302734,0,0]},{"children":[7],"name":"L_larm","translation":[5.90000057220459,0,0]},{"children":[8],"name":"L_harm","translation":[3.3000001907348633,0,0]},{"children":[9],"name":"L_collar","translation":[9.899999618530273,2.700000762939453,0]},{"name":"R_snap","translation":[-5,0,0]},{"children":[11],"name":"R_hand","translation":[-3.1499996185302734,0,-4.225031045848788e-16]},{"children":[12],"name":"R_larm","translation":[-5.90000057220459,0,-7.200923016744754e-16]},{"children":[13],"name":"R_harm","translation":[-3.3000001907348633,0,-4.041334481182156e-16]},{"children":[14],"name":"R_collar","translation":[-9.899999618530273,2.700000762939453,-4.592425233973236e-16]},{"children":[5,10,15],"name":"spine01","translation":[0,5.620204925537109,0]},{"children":[16],"name":"spine00","translation":[0,8.835470199584961,0]},{"name":"L_toe","rotation":[-2.9802318834981634e-8,0,0,1],"translation":[-4.76837158203125e-7,-1.6000008583068848,1.2000001668930054]},{"children":[18],"name":"L_foot","rotation":[1.7763568394002505e-15,0,0,1],"translation":[-4.76837158203125e-7,-2.5200002193450928,1.0658140189368556e-14]},{"children":[19],"name":"L_lleg","rotation":[1.1828166890381908e-8,0,0,1],"scale":[1,0.9999999403953552,1],"translation":[-4.76837158203125e-7,-4.170000076293945,3.9012903130242194e-8]},{"children":[20],"name":"L_leg","translation":[7.5,-1.3000001907348633,0]},{"name":"R_toe","translation":[4.76837158203125e-7,-1.6000008583068848,1.2000000476837158]},{"children":[22],"name":"R_foot","translation":[4.76837158203125e-7,-2.5200002193450928,0]},{"children":[23],"name":"R_lleg","scale":[1,0.9999999403953552,1],"translation":[4.76837158203125e-7,-4.170000076293945,0]},{"children":[24],"name":"R_leg","translation":[-7.5,-1.3000001907348633,0]},{"name":"tail03","translation":[0,-1.9848008155822754,-3.2478561401367188]},{"children":[26],"name":"tail02","translation":[0,-2.2506723403930664,-3.775381088256836]},{"children":[27],"name":"tail01","translation":[0,-3.327425956726074,-5.527412414550781]},{"children":[28],"name":"tail","translation":[0,2.836393356323242,-12.45217514038086]},{"children":[17,21,25,29],"name":"hip","rotation":[-0.7071068286895752,0,0,0.7071068286895752],"translation":[0,0,-10.476552963256836]},{"mesh":0,"name":"SM_bag","skin":0},{"mesh":1,"name":"SM_body","skin":0},{"mesh":2,"name":"SM_head","skin":0},{"children":[31,32,33,30],"name":"yrot"},{"children":[34],"name":"xrot","rotation":[0.7071068286895752,0,0,0.7071067094802856],"scale":[0.009999999776482582,0.009999999776482582,0.009999999776482582]},{"children":[35],"name":"Mariku"}],"materials":[{"alphaMode":"BLEND","doubleSided":true,"name":"M_mariku_body01","pbrMetallicRoughness":{"baseColorTexture":{"index":0},"metallicFactor":0,"roughnessFactor":0.5527864098548889}},{"alphaMode":"BLEND","doubleSided":true,"name":"M_mariku_body00","pbrMetallicRoughness":{"baseColorTexture":{"index":1},"metallicFactor":0,"roughnessFactor":0.5527864098548889}},{"alphaMode":"BLEND","doubleSided":true,"name":"M_mariku_face00","pbrMetallicRoughness":{"baseColorTexture":{"index":2},"metallicFactor":0,"roughnessFactor":0.5527864098548889}},{"alphaMode":"BLEND","doubleSided":true,"name":"M_mariku_hair00","pbrMetallicRoughness":{"baseColorTexture":{"index":3},"metallicFactor":0,"roughnessFactor":0.5527864098548889}},{"alphaMode":"BLEND","doubleSided":true,"name":"M_eye","pbrMetallicRoughness":{"baseColorTexture":{"index":4},"metallicFactor":0,"roughnessFactor":0.5527864098548889}},{"alphaMode":"BLEND","doubleSided":true,"name":"M_mouth","pbrMetallicRoughness":{"baseColorTexture":{"index":5},"metallicFactor":0,"roughnessFactor":0.5527864098548889}}],"meshes":[{"name":"Mesh.002","primitives":[{"attributes":{"POSITION":0,"NORMAL":1,"TEXCOORD_0":2,"JOINTS_0":3,"WEIGHTS_0":4},"indices":5,"material":0}]},{"name":"Mesh.001","primitives":[{"attributes":{"POSITION":7,"NORMAL":8,"TEXCOORD_0":9,"JOINTS_0":10,"WEIGHTS_0":11},"indices":12,"material":1},{"attributes":{"POSITION":13,"NORMAL":14,"TEXCOORD_0":15,"JOINTS_0":16,"WEIGHTS_0":17},"indices":18,"material":0}]},{"name":"Mesh","primitives":[{"attributes":{"POSITION":19,"NORMAL":20,"TEXCOORD_0":21,"JOINTS_0":22,"WEIGHTS_0":23},"indices":24,"material":2},{"attributes":{"POSITION":25,"NORMAL":26,"TEXCOORD_0":27,"JOINTS_0":28,"WEIGHTS_0":29},"indices":30,"material":0},{"attributes":{"POSITION":31,"NORMAL":32,"TEXCOORD_0":33,"JOINTS_0":34,"WEIGHTS_0":35},"indices":36,"material":3},{"attributes":{"POSITION":37,"NORMAL":38,"TEXCOORD_0":39,"JOINTS_0":40,"WEIGHTS_0":41},"indices":42,"material":4},{"attributes":{"POSITION":43,"NORMAL":44,"TEXCOORD_0":45,"JOINTS_0":46,"WEIGHTS_0":47},"indices":48,"material":5}]}],"textures":[{"sampler":0,"source":0},{"sampler":0,"source":0},{"sampler":0,"source":1},{"sampler":0,"source":0},{"sampler":0,"source":2},{"sampler":0,"source":3}],"images":[{"mimeType":"image/png","name":"T_CH01_mariku00_body","uri":"data:application/octet-stream;base64,"},{"mimeType":"image/png","name":"T_CH01_mariku00_face00","uri":"data:application/octet-stream;base64,"},{"mimeType":"image/png","name":"T_CH01_mariku00_eye00","uri":"data:application/octet-stream;base64,"},{"mimeType":"image/png","name":"T_CH01_mariku00_mouth00","uri":"data:application/octet-stream;base64,"}],"skins":[{"inverseBindMatrices":6,"joints":[30,17,16,5,1,0,3,2,4,10,9,8,7,6,15,14,13,12,11,21,20,19,18,25,24,23,22,29,28,27,26],"name":"yrot"}],"accessors":[{"bufferView":0,"componentType":5126,"count":66,"max":[0.07700088620185852,0.2140282392501831,0.1503768116235733],"min":[-0.07700088620185852,0.11901281028985977,0.09254920482635498],"type":"VEC3"},{"bufferView":1,"componentType":5126,"count":66,"type":"VEC3"},{"bufferView":2,"componentType":5126,"count":66,"type":"VEC2"},{"bufferView":3,"componentType":5121,"count":66,"type":"VEC4"},{"bufferView":4,"componentType":5126,"count":66,"type":"VEC4"},{"bufferView":5,"componentType":5123,"count":216,"type":"SCALAR"},{"bufferView":6,"componentType":5126,"count":31,"type":"MAT4"},{"bufferView":7,"componentType":5126,"count":742,"max":[0.2708802819252014,0.33933985233306885,0.13402943313121796],"min":[-0.2708802819252014,1.1529512899954852e-9,-0.29608145356178284],"type":"VEC3"},{"bufferView":8,"componentType":5126,"count":742,"type":"VEC3"},{"bufferView":9,"componentType":5126,"count":742,"type":"VEC2"},{"bufferView":10,"componentType":5121,"count":742,"type":"VEC4"},{"bufferView":11,"componentType":5126,"count":742,"type":"VEC4"},{"bufferView":12,"componentType":5123,"count":3384,"type":"SCALAR"},{"bufferView":13,"componentType":5126,"count":140,"max":[0.14956296980381012,0.2261642962694168,0.12812237441539764],"min":[-0.14956296980381012,0.16815702617168427,-0.14416749775409698],"type":"VEC3"},{"bufferView":14,"componentType":5126,"count":140,"type":"VEC3"},{"bufferView":15,"componentType":5126,"count":140,"type":"VEC2"},{"bufferView":16,"componentType":5121,"count":140,"type":"VEC4"},{"bufferView":17,"componentType":5126,"count":140,"type":"VEC4"},{"bufferView":18,"componentType":5123,"count":516,"type":"SCALAR"},{"bufferView":19,"componentType":5126,"count":634,"max":[0.3420000672340393,0.8023420572280884,0.3153020441532135],"min":[-0.3420000672340393,0.3020968735218048,-0.27633410692214966],"type":"VEC3"},{"bufferView":20,"componentType":5126,"count":634,"type":"VEC3"},{"bufferView":21,"componentType":5126,"count":634,"type":"VEC2"},{"bufferView":22,"componentType":5121,"count":634,"type":"VEC4"},{"bufferView":23,"componentType":5126,"count":634,"type":"VEC4"},{"bufferView":24,"componentType":5123,"count":3180,"type":"SCALAR"},{"bufferView":25,"componentType":5126,"count":219,"max":[0.4232747554779053,0.9942945241928101,0.33835268020629883],"min":[-0.4232747554779053,0.5494237542152405,-0.12270836532115936],"type":"VEC3"},{"bufferView":26,"componentType":5126,"count":219,"type":"VEC3"},{"bufferView":27,"componentType":5126,"count":219,"type":"VEC2"},{"bufferView":28,"componentType":5121,"count":219,"type":"VEC4"},{"bufferView":29,"componentType":5126,"count":219,"type":"VEC4"},{"bufferView":30,"componentType":5123,"count":990,"type":"SCALAR"},{"bufferView":31,"componentType":5126,"count":235,"max":[0.14166279137134552,0.8566571474075317,0.20220105350017548],"min":[-0.12322788685560226,0.7276465892791748,-0.043314844369888306],"type":"VEC3"},{"bufferView":32,"componentType":5126,"count":235,"type":"VEC3"},{"bufferView":33,"componentType":5126,"count":235,"type":"VEC2"},{"bufferView":34,"componentType":5121,"count":235,"type":"VEC4"},{"bufferView":35,"componentType":5126,"count":235,"type":"VEC4"},{"bufferView":36,"componentType":5123,"count":1188,"type":"SCALAR"},{"bufferView":37,"componentType":5126,"count":82,"max":[0.19647908210754395,0.70223468542099,0.2541949152946472],"min":[-0.19647908210754395,0.5492314696311951,0.1643151193857193],"type":"VEC3"},{"bufferView":38,"componentType":5126,"count":82,"type":"VEC3"},{"bufferView":39,"componentType":5126,"count":82,"type":"VEC2"},{"bufferView":40,"componentType":5121,"count":82,"type":"VEC4"},{"bufferView":41,"componentType":5126,"count":82,"type":"VEC4"},{"bufferView":42,"componentType":5123,"count":354,"type":"SCALAR"},{"bufferView":43,"componentType":5126,"count":43,"max":[0.10623955726623535,0.5212154388427734,0.24598824977874756],"min":[-0.10623955726623535,0.3249598443508148,0.14045938849449158],"type":"VEC3"},{"bufferView":44,"componentType":5126,"count":43,"type":"VEC3"},{"bufferView":45,"componentType":5126,"count":43,"type":"VEC2"},{"bufferView":46,"componentType":5121,"count":43,"type":"VEC4"},{"bufferView":47,"componentType":5126,"count":43,"type":"VEC4"},{"bufferView":48,"componentType":5123,"count":174,"type":"SCALAR"}],"bufferViews":[{"buffer":0,"byteLength":792,"byteOffset":0},{"buffer":0,"byteLength":792,"byteOffset":792},{"buffer":0,"byteLength":528,"byteOffset":1584},{"buffer":0,"byteLength":264,"byteOffset":2112},{"buffer":0,"byteLength":1056,"byteOffset":2376},{"buffer":0,"byteLength":432,"byteOffset":3432},{"buffer":0,"byteLength":1984,"byteOffset":3864},{"buffer":0,"byteLength":8904,"byteOffset":5848},{"buffer":0,"byteLength":8904,"byteOffset":14752},{"buffer":0,"byteLength":5936,"byteOffset":23656},{"buffer":0,"byteLength":2968,"byteOffset":29592},{"buffer":0,"byteLength":11872,"byteOffset":32560},{"buffer":0,"byteLength":6768,"byteOffset":44432},{"buffer":0,"byteLength":1680,"byteOffset":51200},{"buffer":0,"byteLength":1680,"byteOffset":52880},{"buffer":0,"byteLength":1120,"byteOffset":54560},{"buffer":0,"byteLength":560,"byteOffset":55680},{"buffer":0,"byteLength":2240,"byteOffset":56240},{"buffer":0,"byteLength":1032,"byteOffset":58480},{"buffer":0,"byteLength":7608,"byteOffset":59512},{"buffer":0,"byteLength":7608,"byteOffset":67120},{"buffer":0,"byteLength":5072,"byteOffset":74728},{"buffer":0,"byteLength":2536,"byteOffset":79800},{"buffer":0,"byteLength":10144,"byteOffset":82336},{"buffer":0,"byteLength":6360,"byteOffset":92480},{"buffer":0,"byteLength":2628,"byteOffset":98840},{"buffer":0,"byteLength":2628,"byteOffset":101468},{"buffer":0,"byteLength":1752,"byteOffset":104096},{"buffer":0,"byteLength":876,"byteOffset":105848},{"buffer":0,"byteLength":3504,"byteOffset":106724},{"buffer":0,"byteLength":1980,"byteOffset":110228},{"buffer":0,"byteLength":2820,"byteOffset":112208},{"buffer":0,"byteLength":2820,"byteOffset":115028},{"buffer":0,"byteLength":1880,"byteOffset":117848},{"buffer":0,"byteLength":940,"byteOffset":119728},{"buffer":0,"byteLength":3760,"byteOffset":120668},{"buffer":0,"byteLength":2376,"byteOffset":124428},{"buffer":0,"byteLength":984,"byteOffset":126804},{"buffer":0,"byteLength":984,"byteOffset":127788},{"buffer":0,"byteLength":656,"byteOffset":128772},{"buffer":0,"byteLength":328,"byteOffset":129428},{"buffer":0,"byteLength":1312,"byteOffset":129756},{"buffer":0,"byteLength":708,"byteOffset":131068},{"buffer":0,"byteLength":516,"byteOffset":131776},{"buffer":0,"byteLength":516,"byteOffset":132292},{"buffer":0,"byteLength":344,"byteOffset":132808},{"buffer":0,"byteLength":172,"byteOffset":133152},{"buffer":0,"byteLength":688,"byteOffset":133324},{"buffer":0,"byteLength":348,"byteOffset":134012}],"samplers":[{"magFilter":9729,"minFilter":9987}],"buffers":[{"byteLength":134360,"uri":"data:application/octet-stream;base64,"}]}